<?xml version="1.0" encoding="UTF-8"?>
<svg id="Warstwa_1" data-name="Warstwa 1" xmlns="http://www.w3.org/2000/svg" xmlns:xlink="http://www.w3.org/1999/xlink" viewBox="0 0 3062.4 1973.01">
  <defs>
    <style>
      .cls-1, .cls-2 {
        fill: #2b519f;
      }

      .cls-2 {
        stroke: url(#Gradient_bez_nazwy_16);
        stroke-miterlimit: 10;
      }
    </style>
    <linearGradient id="Gradient_bez_nazwy_16" data-name="Gradient bez nazwy 16" x1="1939.19" y1="-1789.1" x2="3552.69" y2="-1789.1" gradientTransform="translate(5001.6 -537.01) rotate(-180)" gradientUnits="userSpaceOnUse">
      <stop offset="0" stop-color="#ffef26"/>
      <stop offset=".02" stop-color="#fee921"/>
      <stop offset=".1" stop-color="#fdd70e"/>
      <stop offset=".19" stop-color="#fdcb03"/>
      <stop offset=".28" stop-color="#fdc800"/>
      <stop offset=".67" stop-color="#f18f34"/>
      <stop offset=".89" stop-color="#e95f32"/>
      <stop offset="1" stop-color="#e3312d"/>
    </linearGradient>
  </defs>
  <path class="cls-1" d="M1961.61,849.63c58.6-108.37,112.37-224.61,141.3-288.62,109.51-224.69,190.46-248.96,284.2-245.08,203.71,8.41,242.69,219.54,242.69,219.54,0,0-93.32-162.49-271.43,98.99-47.76,88.25-181.22,345.67-181.22,345.67,0,0-122.01,289.42-452.65,190.8-108.17-32.27-431.89-131.72-431.89-131.72,0,0-150.75-54.65-241.09,141.3-28.28,61.34-109.23,247.11-109.23,247.11,0,0-74.82,271.71-306.69,266.21-149.95-3.56-220.13-209.67-220.13-209.67,0,0,109.29,116.97,241.67-78.71,71.05-137.13,190.8-389.77,285.81-511.53,119.88-153.64,345.67-99.79,345.67-99.79,0,0,580.38,226.79,672.98,55.52Z"/>
  <path class="cls-1" d="M716.36,853.74C335.43,1767.54,0,1341.77,0,1341.77c0,0,285.93-16.76,407.14-332.14,51.06-132.84,172.04-390.34,225.13-522.86C841.03,61.54,998.69,22.16,998.69,22.16c167.65-69.45,244.23,41.25,294.58,100.59,201.18,237.1,318.53,696.93,318.53,696.93l-301.76-95.8s-123.21-377.34-225.6-437.44c0,0-141.36-80.93-368.08,567.3"/>
  <path class="cls-2" d="M2345.06,1118.77c380.93-913.81,716.36-488.04,716.36-488.04,0,0-285.93,16.76-407.14,332.14-51.06,132.84-172.04,390.34-225.13,522.86-208.76,425.24-366.43,464.62-366.43,464.62-167.65,69.45-244.23-41.25-294.58-100.59-201.18-237.1-318.53-696.93-318.53-696.93l301.76,95.8s123.21,377.34,225.6,437.44c0,0,141.36,80.93,368.08-567.3"/>
</svg>

